<svg width="9" height="6" viewBox="0 0 9 6" fill="none" xmlns="http://www.w3.org/2000/svg">
<path d="M8.25002 0.877488C8.1095 0.737799 7.91941 0.659393 7.72127 0.659393C7.52313 0.659393 7.33304 0.737799 7.19252 0.877488L4.50002 3.53249L1.84502 0.877488C1.7045 0.737799 1.51441 0.659393 1.31627 0.659393C1.11813 0.659393 0.928044 0.737799 0.787523 0.877488C0.717226 0.94721 0.66143 1.03016 0.623354 1.12156C0.585277 1.21295 0.565674 1.31098 0.565674 1.40999C0.565674 1.509 0.585277 1.60703 0.623354 1.69842C0.66143 1.78981 0.717226 1.87277 0.787523 1.94249L3.96752 5.12249C4.03724 5.19278 4.1202 5.24858 4.21159 5.28666C4.30298 5.32473 4.40101 5.34434 4.50002 5.34434C4.59903 5.34434 4.69706 5.32473 4.78846 5.28666C4.87985 5.24858 4.9628 5.19278 5.03252 5.12249L8.25002 1.94249C8.32032 1.87277 8.37611 1.78981 8.41419 1.69842C8.45227 1.60703 8.47187 1.509 8.47187 1.40999C8.47187 1.31098 8.45227 1.21295 8.41419 1.12156C8.37611 1.03016 8.32032 0.94721 8.25002 0.877488Z" fill="#F47B20"/>
</svg>
