<svg width="18" height="20" viewBox="0 0 18 20" fill="none" xmlns="http://www.w3.org/2000/svg">
<path d="M8.99996 15.8333C9.16478 15.8333 9.32589 15.7845 9.46294 15.6929C9.59998 15.6013 9.70679 15.4712 9.76986 15.3189C9.83293 15.1666 9.84943 14.9991 9.81728 14.8374C9.78513 14.6758 9.70576 14.5273 9.58922 14.4108C9.47267 14.2942 9.32419 14.2148 9.16253 14.1827C9.00088 14.1505 8.83333 14.167 8.68106 14.2301C8.52878 14.2932 8.39864 14.4 8.30707 14.537C8.2155 14.6741 8.16663 14.8352 8.16663 15C8.16663 15.221 8.25442 15.433 8.4107 15.5893C8.56698 15.7455 8.77895 15.8333 8.99996 15.8333ZM13.1666 15.8333C13.3314 15.8333 13.4926 15.7845 13.6296 15.6929C13.7666 15.6013 13.8735 15.4712 13.9365 15.3189C13.9996 15.1666 14.0161 14.9991 13.9839 14.8374C13.9518 14.6758 13.8724 14.5273 13.7559 14.4108C13.6393 14.2942 13.4909 14.2148 13.3292 14.1827C13.1676 14.1505 13 14.167 12.8477 14.2301C12.6955 14.2932 12.5653 14.4 12.4737 14.537C12.3822 14.6741 12.3333 14.8352 12.3333 15C12.3333 15.221 12.4211 15.433 12.5774 15.5893C12.7337 15.7455 12.9456 15.8333 13.1666 15.8333ZM13.1666 12.5C13.3314 12.5 13.4926 12.4511 13.6296 12.3596C13.7666 12.268 13.8735 12.1379 13.9365 11.9856C13.9996 11.8333 14.0161 11.6658 13.9839 11.5041C13.9518 11.3425 13.8724 11.194 13.7559 11.0774C13.6393 10.9609 13.4909 10.8815 13.3292 10.8494C13.1676 10.8172 13 10.8337 12.8477 10.8968C12.6955 10.9598 12.5653 11.0667 12.4737 11.2037C12.3822 11.3407 12.3333 11.5019 12.3333 11.6667C12.3333 11.8877 12.4211 12.0997 12.5774 12.2559C12.7337 12.4122 12.9456 12.5 13.1666 12.5ZM8.99996 12.5C9.16478 12.5 9.32589 12.4511 9.46294 12.3596C9.59998 12.268 9.70679 12.1379 9.76986 11.9856C9.83293 11.8333 9.84943 11.6658 9.81728 11.5041C9.78513 11.3425 9.70576 11.194 9.58922 11.0774C9.47267 10.9609 9.32419 10.8815 9.16253 10.8494C9.00088 10.8172 8.83333 10.8337 8.68106 10.8968C8.52878 10.9598 8.39864 11.0667 8.30707 11.2037C8.2155 11.3407 8.16663 11.5019 8.16663 11.6667C8.16663 11.8877 8.25442 12.0997 8.4107 12.2559C8.56698 12.4122 8.77895 12.5 8.99996 12.5ZM14.8333 2.50001H14V1.66668C14 1.44566 13.9122 1.2337 13.7559 1.07742C13.5996 0.921141 13.3876 0.833344 13.1666 0.833344C12.9456 0.833344 12.7337 0.921141 12.5774 1.07742C12.4211 1.2337 12.3333 1.44566 12.3333 1.66668V2.50001H5.66663V1.66668C5.66663 1.44566 5.57883 1.2337 5.42255 1.07742C5.26627 0.921141 5.05431 0.833344 4.83329 0.833344C4.61228 0.833344 4.40032 0.921141 4.24404 1.07742C4.08776 1.2337 3.99996 1.44566 3.99996 1.66668V2.50001H3.16663C2.50358 2.50001 1.8677 2.7634 1.39886 3.23224C0.930018 3.70108 0.666626 4.33697 0.666626 5.00001V16.6667C0.666626 17.3297 0.930018 17.9656 1.39886 18.4344C1.8677 18.9033 2.50358 19.1667 3.16663 19.1667H14.8333C15.4963 19.1667 16.1322 18.9033 16.6011 18.4344C17.0699 17.9656 17.3333 17.3297 17.3333 16.6667V5.00001C17.3333 4.33697 17.0699 3.70108 16.6011 3.23224C16.1322 2.7634 15.4963 2.50001 14.8333 2.50001ZM15.6666 16.6667C15.6666 16.8877 15.5788 17.0997 15.4225 17.2559C15.2663 17.4122 15.0543 17.5 14.8333 17.5H3.16663C2.94561 17.5 2.73365 17.4122 2.57737 17.2559C2.42109 17.0997 2.33329 16.8877 2.33329 16.6667V9.16668H15.6666V16.6667ZM15.6666 7.50001H2.33329V5.00001C2.33329 4.779 2.42109 4.56703 2.57737 4.41075C2.73365 4.25447 2.94561 4.16668 3.16663 4.16668H3.99996V5.00001C3.99996 5.22102 4.08776 5.43298 4.24404 5.58927C4.40032 5.74555 4.61228 5.83334 4.83329 5.83334C5.05431 5.83334 5.26627 5.74555 5.42255 5.58927C5.57883 5.43298 5.66663 5.22102 5.66663 5.00001V4.16668H12.3333V5.00001C12.3333 5.22102 12.4211 5.43298 12.5774 5.58927C12.7337 5.74555 12.9456 5.83334 13.1666 5.83334C13.3876 5.83334 13.5996 5.74555 13.7559 5.58927C13.9122 5.43298 14 5.22102 14 5.00001V4.16668H14.8333C15.0543 4.16668 15.2663 4.25447 15.4225 4.41075C15.5788 4.56703 15.6666 4.779 15.6666 5.00001V7.50001ZM4.83329 12.5C4.99811 12.5 5.15923 12.4511 5.29627 12.3596C5.43331 12.268 5.54012 12.1379 5.60319 11.9856C5.66627 11.8333 5.68277 11.6658 5.65061 11.5041C5.61846 11.3425 5.53909 11.194 5.42255 11.0774C5.306 10.9609 5.15752 10.8815 4.99587 10.8494C4.83422 10.8172 4.66666 10.8337 4.51439 10.8968C4.36212 10.9598 4.23197 11.0667 4.1404 11.2037C4.04883 11.3407 3.99996 11.5019 3.99996 11.6667C3.99996 11.8877 4.08776 12.0997 4.24404 12.2559C4.40032 12.4122 4.61228 12.5 4.83329 12.5ZM4.83329 15.8333C4.99811 15.8333 5.15923 15.7845 5.29627 15.6929C5.43331 15.6013 5.54012 15.4712 5.60319 15.3189C5.66627 15.1666 5.68277 14.9991 5.65061 14.8374C5.61846 14.6758 5.53909 14.5273 5.42255 14.4108C5.306 14.2942 5.15752 14.2148 4.99587 14.1827C4.83422 14.1505 4.66666 14.167 4.51439 14.2301C4.36212 14.2932 4.23197 14.4 4.1404 14.537C4.04883 14.6741 3.99996 14.8352 3.99996 15C3.99996 15.221 4.08776 15.433 4.24404 15.5893C4.40032 15.7455 4.61228 15.8333 4.83329 15.8333Z" fill="#F47B20"/>
</svg>
