<svg width="18" height="13" viewBox="0 0 18 13" fill="none" xmlns="http://www.w3.org/2000/svg">
<path d="M4.83329 8.49999H7.33329C7.55431 8.49999 7.76627 8.41219 7.92255 8.25591C8.07883 8.09963 8.16663 7.88767 8.16663 7.66666C8.16663 7.44564 8.07883 7.23368 7.92255 7.0774C7.76627 6.92112 7.55431 6.83332 7.33329 6.83332H4.83329C4.61228 6.83332 4.40032 6.92112 4.24404 7.0774C4.08776 7.23368 3.99996 7.44564 3.99996 7.66666C3.99996 7.88767 4.08776 8.09963 4.24404 8.25591C4.40032 8.41219 4.61228 8.49999 4.83329 8.49999ZM14.8333 0.166656H3.16663C2.50358 0.166656 1.8677 0.430049 1.39886 0.89889C0.930018 1.36773 0.666626 2.00362 0.666626 2.66666V10.1667C0.666626 10.8297 0.930018 11.4656 1.39886 11.9344C1.8677 12.4033 2.50358 12.6667 3.16663 12.6667H14.8333C15.4963 12.6667 16.1322 12.4033 16.6011 11.9344C17.0699 11.4656 17.3333 10.8297 17.3333 10.1667V2.66666C17.3333 2.00362 17.0699 1.36773 16.6011 0.89889C16.1322 0.430049 15.4963 0.166656 14.8333 0.166656ZM15.6666 10.1667C15.6666 10.3877 15.5788 10.5996 15.4225 10.7559C15.2663 10.9122 15.0543 11 14.8333 11H3.16663C2.94561 11 2.73365 10.9122 2.57737 10.7559C2.42109 10.5996 2.33329 10.3877 2.33329 10.1667V5.16666H15.6666V10.1667ZM15.6666 3.49999H2.33329V2.66666C2.33329 2.44564 2.42109 2.23368 2.57737 2.0774C2.73365 1.92112 2.94561 1.83332 3.16663 1.83332H14.8333C15.0543 1.83332 15.2663 1.92112 15.4225 2.0774C15.5788 2.23368 15.6666 2.44564 15.6666 2.66666V3.49999Z" fill="#F47B20"/>
</svg>
