<svg width="12" height="18" viewBox="0 0 12 18" fill="none" xmlns="http://www.w3.org/2000/svg">
<path d="M11.8334 6.49999C11.8334 3.24999 9.25002 0.666656 6.00002 0.666656C2.75002 0.666656 0.166687 3.24999 0.166687 6.49999C0.166687 9.41666 2.33335 11.8333 5.16669 12.25V14H4.33335C3.83335 14 3.50002 14.3333 3.50002 14.8333C3.50002 15.3333 3.83335 15.6667 4.33335 15.6667H5.16669V16.5C5.16669 17 5.50002 17.3333 6.00002 17.3333C6.50002 17.3333 6.83335 17 6.83335 16.5V15.6667H7.66669C8.16669 15.6667 8.50002 15.3333 8.50002 14.8333C8.50002 14.3333 8.16669 14 7.66669 14H6.83335V12.25C9.66669 11.8333 11.8334 9.41666 11.8334 6.49999ZM6.00002 10.6667C3.66669 10.6667 1.83335 8.83332 1.83335 6.49999C1.83335 4.16666 3.66669 2.33332 6.00002 2.33332C8.33335 2.33332 10.1667 4.16666 10.1667 6.49999C10.1667 8.83332 8.33335 10.6667 6.00002 10.6667Z" fill="#F47B20"/>
</svg>
