<svg width="16" height="16" viewBox="0 0 16 16" fill="none" xmlns="http://www.w3.org/2000/svg">
<path d="M14.25 0.916656H10.9167C10.4167 0.916656 10.0833 1.24999 10.0833 1.74999C10.0833 2.24999 10.4167 2.58332 10.9167 2.58332H12.25L10.25 4.58332C7.66668 2.66666 4.00001 3.16666 2.08334 5.74999C0.166678 8.33332 0.666678 12 3.25001 13.9167C5.83334 15.8333 9.50001 15.3333 11.4167 12.75C13 10.6667 13 7.83332 11.4167 5.74999L13.4167 3.74999V5.08332C13.4167 5.58332 13.75 5.91666 14.25 5.91666C14.75 5.91666 15.0833 5.58332 15.0833 5.08332V1.74999C15.0833 1.24999 14.75 0.916656 14.25 0.916656ZM9.66668 12.1667C8.00001 13.8333 5.41668 13.8333 3.75001 12.1667C2.08334 10.5 2.08334 7.91666 3.75001 6.24999C5.41668 4.58332 8.00001 4.58332 9.66668 6.24999C10.4167 6.99999 10.9167 8.08332 10.9167 9.16666C10.9167 10.3333 10.5 11.4167 9.66668 12.1667Z" fill="#F47B20"/>
</svg>
