<svg width="35" height="35" viewBox="0 0 35 35" fill="none" xmlns="http://www.w3.org/2000/svg">
<path fill-rule="evenodd" clip-rule="evenodd" d="M4.33207 6.84388C4.24012 6.96295 4.1902 7.10954 4.1902 7.26043C4.1902 7.41133 4.24012 7.55791 4.33207 7.67698C4.38492 7.7787 5.90322 9.71613 9.18486 9.71613C10.8185 9.71613 12.1638 8.96053 13.4611 8.22915C14.7584 7.49777 15.9932 6.80998 17.4923 6.80998C18.9723 6.80998 20.1386 7.51821 21.3887 8.27737L21.437 8.30665L21.443 8.31032C22.7098 9.07947 24.1015 9.92441 25.8045 9.92441C29.2206 9.92441 30.6476 7.71089 30.7053 7.61886C30.7802 7.49899 30.8163 7.35861 30.8085 7.21716C30.8008 7.0757 30.7496 6.94018 30.6621 6.82935C29.0738 4.85255 27.0675 3.25839 24.7898 2.16334C22.5121 1.06828 20.0205 0.5 17.4971 0.5C14.9736 0.5 12.482 1.06828 10.2043 2.16334C7.9266 3.25839 5.92033 4.85255 4.33207 6.82935V6.84388ZM1.61775 11.4502C0.716984 13.8245 0.353354 16.3716 0.553392 18.9057C0.753431 21.4397 1.51209 23.8968 2.77403 26.0976C4.03597 28.2984 5.76935 30.1875 7.84772 31.6271C9.92609 33.0666 12.297 34.0203 14.7876 34.4185C14.9351 34.4432 15.0865 34.417 15.2173 34.344C15.3482 34.271 15.4507 34.1556 15.5083 34.0165C15.5467 33.9196 16.4692 31.5947 14.8356 28.7321C14.0156 27.3158 12.6979 26.5218 11.4222 25.7531L11.4146 25.7485C10.1366 24.9783 8.93538 24.2518 8.18584 22.9392C7.44264 21.6535 7.46981 20.2471 7.49858 18.7587L7.49876 18.7495C7.52759 17.2577 7.55641 15.606 6.70598 14.119C5.00029 11.1354 2.38171 11.0046 2.2664 10.9997C2.12487 10.9958 1.98578 11.0374 1.86919 11.1183C1.7526 11.1993 1.66455 11.3155 1.61775 11.4502ZM28.4616 14.2935C30.1097 11.4309 32.5649 11.0628 32.6706 11.0628C32.8203 11.0459 32.9712 11.0802 33.0993 11.1601C33.2273 11.24 33.3251 11.361 33.3769 11.5035C34.2802 13.8786 34.646 16.4271 34.4476 18.9629C34.2491 21.4987 33.4914 23.9579 32.2298 26.1608C30.9682 28.3637 29.2345 30.2548 27.1553 31.696C25.0761 33.1373 22.7039 34.0922 20.2119 34.4912C20.0735 34.5141 19.9315 34.4927 19.8057 34.4302C19.6799 34.3677 19.5767 34.2671 19.5104 34.1425C19.1993 33.4611 19.0449 32.7177 19.0587 31.9677C19.0716 30.8167 19.3884 29.6899 19.9765 28.7031C20.8118 27.246 22.1926 26.4682 23.4652 25.7513C23.4955 25.7342 23.5258 25.7171 23.556 25.7001C23.5952 25.678 23.6344 25.6559 23.6734 25.6339C24.9261 24.9286 26.0867 24.275 26.8136 22.9974C27.5631 21.6799 27.5872 20.2753 27.6064 18.7738C27.6256 17.2723 27.6496 15.7223 28.4616 14.2935Z" fill="white"/>
</svg>
